# xmcd
#
# Track frame offsets: 
#        150
#        38169
#        63520
#        79577
#        94716
#        112278
#        147189
#        162371
#        192878
#        205511
#        222741
#        238152
#        254489
#        269483
#        286580
#        301891
#        317953
#        338018
#
# Disc length: 4705 seconds
#
# Revision: 0
# Processed by: cddbd v1.5.2PL0 Copyright (c) Steve Scherf et al.
# Submitted via: ExactAudioCopy v1.0b3
#
DISCID=0f125f12
DTITLE=Various Artist - Trance The Vocal Session Vol. 14 - CD 2
DYEAR=1900
DGENRE=
TTITLE0=Tiesto Feat. Christian Burns - In The Dark (Tiesto's Trance Mi
TTITLE0=x)
TTITLE1=Jan Wayne and Scarlet - I Touch Myself (Handz Up Club Mix)
TTITLE2=Visior and Dark Moon - Beautiful People (Original Single Edit)
TTITLE3=Kindervater Feat. Nadja - Forever (Radio Edit)
TTITLE4=Alex Bartlett and Andy Guess - Universe Inside (Andy Guess Short
TTITLE4=Mix)
TTITLE5=Filo and Peri Feat. Eric Lumiere - Anthem (Original Version)
TTITLE6=Jens O. - Reason (Radio Edit)
TTITLE7=Comicoon - Komodo (Dream Dance Alliance Remix)
TTITLE8=Progression Feat. Red - Stranger
TTITLE9=Jes - Ghost (Radio Edit)
TTITLE10=Marc Marberg With Kyau and Albert - Megashira (Radio Edit)
TTITLE11=Ronski Speed With Stoneface and Terminal - Soulseeker (Stonefac
TTITLE11=e and Terminal Radio)
TTITLE12=Lisaya Vs. Petersen Pres. Imperion - Wings
TTITLE13=Understatement - The Message (Rough Radio Edit)
TTITLE14=Priority Q Feat. Elles De Graaf - Mirror Of My Memory
TTITLE15=Naksi Vs. Brunner Feat. Marcie - Somewhere Over The Rainbow (
TTITLE15=DJ Klubbingman Edit)
TTITLE16=Denga and Manus Feat. Mque - Loosing Senses
TTITLE17=Freddy Fader - Total Eclipse Of The Heart
EXTD=
EXTT0=
EXTT1=
EXTT2=
EXTT3=
EXTT4=
EXTT5=
EXTT6=
EXTT7=
EXTT8=
EXTT9=
EXTT10=
EXTT11=
EXTT12=
EXTT13=
EXTT14=
EXTT15=
EXTT16=
EXTT17=
PLAYORDER=
